<svg width="28" height="28" viewBox="0 0 28 28" fill="none" xmlns="http://www.w3.org/2000/svg">
<path d="M19.8732 14.5859H6.64404C6.46156 14.5859 6.30856 14.5294 6.18505 14.4165C6.06168 14.3034 6 14.1632 6 13.996C6 13.8289 6.06168 13.6888 6.18505 13.5759C6.30856 13.463 6.46156 13.4066 6.64404 13.4066H19.8732L16.1491 9.98449C16.0322 9.87689 15.971 9.74236 15.9656 9.5809C15.9603 9.41944 16.0215 9.2798 16.1491 9.16198C16.2662 9.05399 16.4152 9 16.5961 9C16.7772 9 16.9271 9.05445 17.0459 9.16336L21.7804 13.4988C21.8608 13.5723 21.9175 13.6503 21.9504 13.7327C21.9835 13.815 22 13.9032 22 13.9973C22 14.0914 21.9834 14.1808 21.9502 14.2655C21.9168 14.3501 21.8602 14.4288 21.7804 14.5014L17.0459 18.8368C16.9284 18.9456 16.7814 19 16.6051 19C16.4289 19 16.277 18.9456 16.1491 18.8368C16.016 18.7198 15.9509 18.5796 15.9536 18.4163C15.9563 18.253 16.0215 18.1129 16.1491 17.996L19.8732 14.5859Z" fill="black"/>
</svg>
