<svg width="28" height="28" viewBox="0 0 28 28" fill="none" xmlns="http://www.w3.org/2000/svg">
<path d="M14 19.7436L9.63842 21.6193C9.01017 21.89 8.41342 21.8379 7.84817 21.4632C7.28272 21.0887 7 20.5657 7 19.8941V6.5515C7 6.01444 7.17986 5.56605 7.53958 5.20633C7.89931 4.84661 8.34769 4.66675 8.88475 4.66675H19.1153C19.6523 4.66675 20.1007 4.84661 20.4604 5.20633C20.8201 5.56605 21 6.01444 21 6.5515V19.8941C21 20.5657 20.7173 21.0887 20.1518 21.4632C19.5866 21.8379 18.9898 21.89 18.3616 21.6193L14 19.7436ZM14 18.4334L18.8236 20.5153C19.0629 20.6201 19.2911 20.5978 19.5081 20.4482C19.7249 20.2985 19.8333 20.0966 19.8333 19.8425V6.5515C19.8333 6.37183 19.7586 6.20723 19.609 6.05771C19.4595 5.90818 19.2949 5.83341 19.1153 5.83341H8.88475C8.70508 5.83341 8.54049 5.90818 8.39096 6.05771C8.24143 6.20723 8.16667 6.37183 8.16667 6.5515V19.8425C8.16667 20.0966 8.27507 20.2985 8.49187 20.4482C8.70887 20.5978 8.93706 20.6201 9.17642 20.5153L14 18.4334ZM14 5.83341H8.16667H19.8333H14Z" fill="black"/>
</svg>
