<svg width="28" height="28" viewBox="0 0 28 28" fill="none" xmlns="http://www.w3.org/2000/svg">
<path d="M6.19254 23.9167C5.61251 23.9167 5.116 23.7102 4.703 23.2972C4.29 22.8842 4.0835 22.3876 4.0835 21.8076V6.19237C4.0835 5.61235 4.29 5.11583 4.703 4.70283C5.116 4.28983 5.61251 4.08333 6.19254 4.08333H11.3842C11.4575 3.43564 11.7402 2.88487 12.2324 2.43104C12.7243 1.97701 13.3154 1.75 14.0057 1.75C14.696 1.75 15.2872 1.97701 15.7793 2.43104C16.2715 2.88487 16.5504 3.43564 16.6161 4.08333H21.8078C22.3878 4.08333 22.8843 4.28983 23.2973 4.70283C23.7103 5.11583 23.9168 5.61235 23.9168 6.19237V21.8076C23.9168 22.3876 23.7103 22.8842 23.2973 23.2972C22.8843 23.7102 22.3878 23.9167 21.8078 23.9167H6.19254ZM6.19254 22.1667H21.8078C21.8976 22.1667 21.9799 22.1292 22.0545 22.0544C22.1294 21.9797 22.1668 21.8975 22.1668 21.8076V6.19237C22.1668 6.10254 22.1294 6.02029 22.0545 5.94562C21.9799 5.87076 21.8976 5.83333 21.8078 5.83333H6.19254C6.1027 5.83333 6.02045 5.87076 5.94579 5.94562C5.87093 6.02029 5.8335 6.10254 5.8335 6.19237V21.8076C5.8335 21.8975 5.87093 21.9797 5.94579 22.0544C6.02045 22.1292 6.1027 22.1667 6.19254 22.1667ZM9.3335 19.4069H15.1668C15.4147 19.4069 15.6225 19.323 15.7901 19.1552C15.9579 18.9876 16.0418 18.7797 16.0418 18.5316C16.0418 18.2837 15.9579 18.0759 15.7901 17.9083C15.6225 17.7409 15.4147 17.6572 15.1668 17.6572H9.3335C9.08558 17.6572 8.87782 17.741 8.71021 17.9086C8.5424 18.0764 8.4585 18.2844 8.4585 18.5325C8.4585 18.7804 8.5424 18.9882 8.71021 19.1558C8.87782 19.3232 9.08558 19.4069 9.3335 19.4069ZM9.3335 14.875H18.6668C18.9147 14.875 19.1225 14.7911 19.2901 14.6233C19.4579 14.4555 19.5418 14.2476 19.5418 13.9997C19.5418 13.7516 19.4579 13.5438 19.2901 13.3764C19.1225 13.2088 18.9147 13.125 18.6668 13.125H9.3335C9.08558 13.125 8.87782 13.2089 8.71021 13.3767C8.5424 13.5445 8.4585 13.7524 8.4585 14.0003C8.4585 14.2484 8.5424 14.4562 8.71021 14.6236C8.87782 14.7912 9.08558 14.875 9.3335 14.875ZM9.3335 10.3428H18.6668C18.9147 10.3428 19.1225 10.259 19.2901 10.0914C19.4579 9.92357 19.5418 9.71561 19.5418 9.4675C19.5418 9.21958 19.4579 9.01182 19.2901 8.84421C19.1225 8.67679 18.9147 8.59308 18.6668 8.59308H9.3335C9.08558 8.59308 8.87782 8.67699 8.71021 8.84479C8.5424 9.0124 8.4585 9.22026 8.4585 9.46837C8.4585 9.71629 8.5424 9.92405 8.71021 10.0917C8.87782 10.2591 9.08558 10.3428 9.3335 10.3428ZM14.0002 5.07062C14.2529 5.07062 14.462 4.98798 14.6272 4.82271C14.7925 4.65743 14.8752 4.4484 14.8752 4.19562C14.8752 3.94285 14.7925 3.73382 14.6272 3.56854C14.462 3.40326 14.2529 3.32062 14.0002 3.32062C13.7474 3.32062 13.5384 3.40326 13.3731 3.56854C13.2078 3.73382 13.1252 3.94285 13.1252 4.19562C13.1252 4.4484 13.2078 4.65743 13.3731 4.82271C13.5384 4.98798 13.7474 5.07062 14.0002 5.07062Z" fill="black"/>
</svg>
