<svg width="28" height="28" viewBox="0 0 28 28" fill="none" xmlns="http://www.w3.org/2000/svg">
<path d="M13.9998 20.3718L9.36905 22.3595C8.66613 22.6601 7.99831 22.6026 7.36559 22.1868C6.73286 21.7711 6.4165 21.1863 6.4165 20.4325V6.19242C6.4165 5.60305 6.62067 5.10421 7.029 4.69587C7.43734 4.28754 7.93618 4.08337 8.52555 4.08337H19.4741C20.0635 4.08337 20.5623 4.28754 20.9707 4.69587C21.379 5.10421 21.5832 5.60305 21.5832 6.19242V20.4325C21.5832 21.1863 21.2668 21.7711 20.6341 22.1868C20.0014 22.6026 19.3335 22.6601 18.6306 22.3595L13.9998 20.3718ZM13.9998 18.4334L19.3283 20.7285C19.4481 20.7808 19.5621 20.7696 19.6704 20.695C19.7789 20.6201 19.8332 20.5191 19.8332 20.3919V6.19242C19.8332 6.10258 19.7957 6.02033 19.7209 5.94567C19.6462 5.8708 19.564 5.83337 19.4741 5.83337H8.52555C8.43571 5.83337 8.35346 5.8708 8.2788 5.94567C8.20393 6.02033 8.1665 6.10258 8.1665 6.19242V20.3919C8.1665 20.5191 8.22075 20.6201 8.32925 20.695C8.43756 20.7696 8.5516 20.7808 8.67138 20.7285L13.9998 18.4334ZM13.9998 5.83337H8.1665H19.8332H13.9998Z" fill="black"/>
</svg>
