<svg width="28" height="28" viewBox="0 0 28 28" fill="none" xmlns="http://www.w3.org/2000/svg">
<path d="M7 22.1668H10.904V16.2885C10.904 15.9898 11.005 15.7394 11.207 15.5372C11.4092 15.3351 11.6597 15.2341 11.9583 15.2341H16.0417C16.3403 15.2341 16.5908 15.3351 16.793 15.5372C16.995 15.7394 17.096 15.9898 17.096 16.2885V22.1668H21V11.8461C21 11.7864 20.9869 11.7323 20.9606 11.6837C20.9346 11.6351 20.8991 11.592 20.8542 11.5545L14.2132 6.56259C14.1533 6.51028 14.0822 6.48413 14 6.48413C13.9178 6.48413 13.8467 6.51028 13.7868 6.56259L7.14583 11.5545C7.10092 11.592 7.06543 11.6351 7.03938 11.6837C7.01313 11.7323 7 11.7864 7 11.8461V22.1668ZM5.25 22.1668V11.8461C5.25 11.5123 5.32467 11.196 5.474 10.8973C5.62353 10.5985 5.83003 10.3524 6.0935 10.1591L12.7347 5.15588C13.1032 4.87471 13.5244 4.73413 13.9983 4.73413C14.4721 4.73413 14.8944 4.87471 15.2653 5.15588L21.9065 10.1591C22.17 10.3524 22.3765 10.5985 22.526 10.8973C22.6753 11.196 22.75 11.5123 22.75 11.8461V22.1668C22.75 22.6439 22.5776 23.0549 22.2329 23.3996C21.8881 23.7444 21.4772 23.9168 21 23.9168H16.4007C16.1018 23.9168 15.8514 23.8156 15.6494 23.6134C15.4472 23.4114 15.346 23.1609 15.346 22.8621V16.9841H12.654V22.8621C12.654 23.1609 12.5528 23.4114 12.3506 23.6134C12.1486 23.8156 11.8982 23.9168 11.5993 23.9168H7C6.52283 23.9168 6.11187 23.7444 5.76712 23.3996C5.42237 23.0549 5.25 22.6439 5.25 22.1668Z" fill="black"/>
</svg>
