<svg width="28" height="28" viewBox="0 0 28 28" fill="none" xmlns="http://www.w3.org/2000/svg">
<path d="M7.02667 20.1742C8.01834 19.4385 9.09867 18.8574 10.2677 18.431C11.4365 18.0047 12.6805 17.7916 13.9998 17.7916C15.3191 17.7916 16.5632 18.0047 17.732 18.431C18.901 18.8574 19.9813 19.4385 20.973 20.1742C21.6983 19.377 22.273 18.4542 22.697 17.4057C23.1211 16.3573 23.3332 15.222 23.3332 14C23.3332 11.4138 22.4241 9.21176 20.6061 7.39371C18.788 5.57565 16.5859 4.66663 13.9998 4.66663C11.4137 4.66663 9.21164 5.57565 7.39359 7.39371C5.57553 9.21176 4.6665 11.4138 4.6665 14C4.6665 15.222 4.87855 16.3573 5.30263 17.4057C5.72671 18.4542 6.30139 19.377 7.02667 20.1742ZM14.0001 14.875C12.935 14.875 12.0367 14.5094 11.3054 13.7783C10.5739 13.047 10.2082 12.1488 10.2082 11.0836C10.2082 10.0184 10.5737 9.12018 11.3048 8.38888C12.0361 7.65738 12.9344 7.29163 13.9995 7.29163C15.0647 7.29163 15.9629 7.65718 16.6943 8.38829C17.4258 9.1196 17.7915 10.0178 17.7915 11.083C17.7915 12.1482 17.4259 13.0464 16.6948 13.7777C15.9635 14.5092 15.0653 14.875 14.0001 14.875ZM13.9998 25.0833C12.4608 25.0833 11.0171 24.7939 9.66859 24.215C8.32011 23.6361 7.14713 22.8479 6.14963 21.8502C5.15193 20.8527 4.36366 19.6797 3.7848 18.3312C3.20593 16.9827 2.9165 15.539 2.9165 14C2.9165 12.4609 3.20593 11.0172 3.7848 9.66871C4.36366 8.32024 5.15193 7.14725 6.14963 6.14975C7.14713 5.15206 8.32011 4.36378 9.66859 3.78492C11.0171 3.20606 12.4608 2.91663 13.9998 2.91663C15.5389 2.91663 16.9826 3.20606 18.3311 3.78492C19.6796 4.36378 20.8525 5.15206 21.85 6.14975C22.8477 7.14725 23.636 8.32024 24.2149 9.66871C24.7937 11.0172 25.0832 12.4609 25.0832 14C25.0832 15.539 24.7937 16.9827 24.2149 18.3312C23.636 19.6797 22.8477 20.8527 21.85 21.8502C20.8525 22.8479 19.6796 23.6361 18.3311 24.215C16.9826 24.7939 15.5389 25.0833 13.9998 25.0833ZM13.9998 23.3333C15.0528 23.3333 16.0679 23.1639 17.0454 22.8252C18.0229 22.4863 18.8908 22.0125 19.6491 21.4039C18.8908 20.8175 18.0342 20.3605 17.0793 20.0331C16.1241 19.7054 15.0977 19.5416 13.9998 19.5416C12.902 19.5416 11.8737 19.7035 10.9149 20.0273C9.95607 20.3512 9.10129 20.8101 8.35054 21.4039C9.10888 22.0125 9.97678 22.4863 10.9543 22.8252C11.9317 23.1639 12.9469 23.3333 13.9998 23.3333ZM13.9998 13.125C14.5803 13.125 15.0656 12.9297 15.4558 12.5393C15.8463 12.149 16.0415 11.6637 16.0415 11.0833C16.0415 10.5029 15.8463 10.0175 15.4558 9.62729C15.0656 9.23685 14.5803 9.04163 13.9998 9.04163C13.4194 9.04163 12.9341 9.23685 12.5438 9.62729C12.1534 10.0175 11.9582 10.5029 11.9582 11.0833C11.9582 11.6637 12.1534 12.149 12.5438 12.5393C12.9341 12.9297 13.4194 13.125 13.9998 13.125Z" fill="black"/>
</svg>
