<svg width="28" height="28" viewBox="0 0 28 28" fill="none" xmlns="http://www.w3.org/2000/svg">
<path d="M12.344 16.504L9.63388 13.7936C9.47229 13.6322 9.2692 13.5496 9.02459 13.5457C8.78017 13.542 8.57338 13.6246 8.40421 13.7936C8.23524 13.9627 8.15075 14.1677 8.15075 14.4084C8.15075 14.6491 8.23524 14.8541 8.40421 15.0232L11.6058 18.2249C11.8168 18.4356 12.0629 18.541 12.344 18.541C12.6252 18.541 12.8713 18.4356 13.0823 18.2249L19.573 11.7341C19.7344 11.5725 19.817 11.3694 19.8209 11.1248C19.8246 10.8804 19.742 10.6736 19.573 10.5045C19.4038 10.3355 19.1989 10.251 18.9582 10.251C18.7174 10.251 18.5125 10.3355 18.3433 10.5045L12.344 16.504ZM14.0019 25.0834C12.4689 25.0834 11.0279 24.7925 9.67909 24.2107C8.33022 23.629 7.15695 22.8394 6.15925 21.8421C5.16156 20.8448 4.37163 19.672 3.78946 18.3237C3.20749 16.9755 2.9165 15.5349 2.9165 14.0021C2.9165 12.4691 3.20739 11.0282 3.78917 9.67933C4.37095 8.33047 5.16049 7.15719 6.1578 6.1595C7.1551 5.1618 8.32789 4.37187 9.67617 3.78971C11.0244 3.20773 12.465 2.91675 13.9978 2.91675C15.5308 2.91675 16.9717 3.20764 18.3206 3.78941C19.6694 4.37119 20.8427 5.16073 21.8404 6.15804C22.8381 7.15534 23.628 8.32814 24.2102 9.67641C24.7922 11.0247 25.0832 12.4652 25.0832 13.998C25.0832 15.531 24.7923 16.972 24.2105 18.3208C23.6287 19.6697 22.8392 20.843 21.8419 21.8407C20.8446 22.8384 19.6718 23.6283 18.3235 24.2105C16.9752 24.7924 15.5347 25.0834 14.0019 25.0834ZM13.9998 23.3334C16.6054 23.3334 18.8123 22.4292 20.6207 20.6209C22.429 18.8126 23.3332 16.6056 23.3332 14.0001C23.3332 11.3945 22.429 9.18758 20.6207 7.37925C18.8123 5.57091 16.6054 4.66675 13.9998 4.66675C11.3943 4.66675 9.18734 5.57091 7.379 7.37925C5.57067 9.18758 4.6665 11.3945 4.6665 14.0001C4.6665 16.6056 5.57067 18.8126 7.379 20.6209C9.18734 22.4292 11.3943 23.3334 13.9998 23.3334Z" fill="black"/>
</svg>
