<svg width="28" height="28" viewBox="0 0 28 28" fill="none" xmlns="http://www.w3.org/2000/svg">
<path d="M16.8989 14.0072L10.2502 7.35802C10.1035 7.21161 10.0252 7.03192 10.0153 6.81896C10.0051 6.60626 10.0834 6.41666 10.2502 6.25015C10.4167 6.08338 10.6013 6 10.8041 6C11.0069 6 11.1915 6.08338 11.358 6.25015L18.2299 13.1217C18.3664 13.2584 18.4623 13.3981 18.5177 13.5406C18.5727 13.6831 18.6003 13.8386 18.6003 14.0072C18.6003 14.1758 18.5727 14.3313 18.5177 14.4738C18.4623 14.6163 18.3664 14.756 18.2299 14.8927L11.358 21.7642C11.2116 21.9109 11.0319 21.9892 10.819 21.9991C10.6063 22.0093 10.4167 21.931 10.2502 21.7642C10.0834 21.5977 10 21.4131 10 21.2103C10 21.0075 10.0834 20.8229 10.2502 20.6564L16.8989 14.0072Z" fill="black"/>
</svg>
