<svg width="28" height="28" viewBox="0 0 28 28" fill="none" xmlns="http://www.w3.org/2000/svg">
<path d="M13.9928 18.6003C13.8242 18.6003 13.6687 18.5727 13.5262 18.5177C13.3837 18.4623 13.244 18.3664 13.1073 18.2299L6.23576 11.358C6.08909 11.2116 6.0108 11.0319 6.00088 10.819C5.9907 10.6063 6.06899 10.4167 6.23576 10.2501C6.40227 10.0834 6.58691 10 6.7897 10C6.99248 10 7.17712 10.0834 7.34363 10.2501L13.9928 16.8989L20.642 10.2501C20.7884 10.1035 20.9681 10.0252 21.181 10.0153C21.3937 10.0051 21.5833 10.0834 21.7499 10.2501C21.9166 10.4167 22 10.6013 22 10.8041C22 11.0069 21.9166 11.1915 21.7499 11.358L14.8783 18.2299C14.7416 18.3664 14.6019 18.4623 14.4594 18.5177C14.3169 18.5727 14.1614 18.6003 13.9928 18.6003Z" fill="black"/>
</svg>
