<svg width="28" height="28" viewBox="0 0 28 28" fill="none" xmlns="http://www.w3.org/2000/svg">
<path d="M14.0072 11.7103L7.35802 18.3591C7.21161 18.5058 7.03192 18.5841 6.81896 18.594C6.60626 18.6042 6.41666 18.5259 6.25015 18.3591C6.08338 18.1926 6 18.008 6 17.8052C6 17.6024 6.08338 17.4178 6.25015 17.2513L13.1217 10.3793C13.3748 10.1264 13.67 10 14.0072 10C14.3444 10 14.6396 10.1264 14.8927 10.3793L21.7642 17.2513C21.9109 17.3977 21.9892 17.5774 21.9991 17.7903C22.0093 18.003 21.931 18.1926 21.7642 18.3591C21.5977 18.5259 21.4131 18.6093 21.2103 18.6093C21.0075 18.6093 20.8229 18.5259 20.6564 18.3591L14.0072 11.7103Z" fill="black"/>
</svg>
