<svg width="28" height="28" viewBox="0 0 28 28" fill="none" xmlns="http://www.w3.org/2000/svg">
<path d="M11.7013 13.9928L18.3501 20.642C18.4968 20.7884 18.5751 20.9681 18.585 21.181C18.5952 21.3937 18.5169 21.5833 18.3501 21.7498C18.1836 21.9166 17.999 22 17.7962 22C17.5934 22 17.4088 21.9166 17.2423 21.7498L10.3703 14.8783C10.2338 14.7416 10.1379 14.6019 10.0826 14.4594C10.0275 14.3169 10 14.1614 10 13.9928C10 13.8242 10.0275 13.6687 10.0826 13.5262C10.1379 13.3837 10.2338 13.244 10.3703 13.1073L17.2423 6.23576C17.3887 6.08909 17.5683 6.0108 17.7813 6.00088C17.994 5.9907 18.1836 6.06899 18.3501 6.23576C18.5169 6.40227 18.6003 6.58691 18.6003 6.7897C18.6003 6.99248 18.5169 7.17713 18.3501 7.34363L11.7013 13.9928Z" fill="black"/>
</svg>
