<svg width="28" height="28" viewBox="0 0 28 28" fill="none" xmlns="http://www.w3.org/2000/svg">
<path d="M9.33317 16.1985C9.09245 16.1985 8.88264 16.1092 8.70375 15.9305C8.52506 15.7518 8.43571 15.5421 8.43571 15.3013C8.43571 15.0604 8.52506 14.8506 8.70375 14.6719C8.88264 14.4932 9.09245 14.4039 9.33317 14.4039C9.57389 14.4039 9.7837 14.4932 9.96259 14.6719C10.1413 14.8506 10.2306 15.0604 10.2306 15.3013C10.2306 15.5421 10.1413 15.7518 9.96259 15.9305C9.7837 16.1092 9.57389 16.1985 9.33317 16.1985ZM13.9998 16.1985C13.7591 16.1985 13.5493 16.1092 13.3704 15.9305C13.1917 15.7518 13.1024 15.5421 13.1024 15.3013C13.1024 15.0604 13.1917 14.8506 13.3704 14.6719C13.5493 14.4932 13.7591 14.4039 13.9998 14.4039C14.2406 14.4039 14.4504 14.4932 14.6293 14.6719C14.8079 14.8506 14.8973 15.0604 14.8973 15.3013C14.8973 15.5421 14.8079 15.7518 14.6293 15.9305C14.4504 16.1092 14.2406 16.1985 13.9998 16.1985ZM18.6665 16.1985C18.4258 16.1985 18.216 16.1092 18.0371 15.9305C17.8584 15.7518 17.769 15.5421 17.769 15.3013C17.769 15.0604 17.8584 14.8506 18.0371 14.6719C18.216 14.4932 18.4258 14.4039 18.6665 14.4039C18.9072 14.4039 19.117 14.4932 19.2959 14.6719C19.4746 14.8506 19.564 15.0604 19.564 15.3013C19.564 15.5421 19.4746 15.7518 19.2959 15.9305C19.117 16.1092 18.9072 16.1985 18.6665 16.1985ZM6.55125 24.4999C6.0142 24.4999 5.56581 24.3201 5.20609 23.9603C4.84637 23.6006 4.6665 23.1522 4.6665 22.6152V7.718C4.6665 7.18095 4.84637 6.73256 5.20609 6.37284C5.56581 6.01312 6.0142 5.83325 6.55125 5.83325H8.61509V3.85896C8.61509 3.67793 8.67459 3.52792 8.79359 3.40892C8.91259 3.29012 9.0625 3.23071 9.24334 3.23071C9.42437 3.23071 9.57438 3.29012 9.69338 3.40892C9.81218 3.52792 9.87159 3.67793 9.87159 3.85896V5.83325H18.2179V3.81405C18.2179 3.64799 18.2736 3.50925 18.385 3.39784C18.4965 3.28642 18.6352 3.23071 18.8013 3.23071C18.9671 3.23071 19.1058 3.28642 19.2172 3.39784C19.3288 3.50925 19.3846 3.64799 19.3846 3.81405V5.83325H21.4484C21.9855 5.83325 22.4339 6.01312 22.7936 6.37284C23.1533 6.73256 23.3332 7.18095 23.3332 7.718V22.6152C23.3332 23.1522 23.1533 23.6006 22.7936 23.9603C22.4339 24.3201 21.9855 24.4999 21.4484 24.4999H6.55125ZM6.55125 23.3333H21.4484C21.6281 23.3333 21.7927 23.2585 21.9422 23.109C22.0917 22.9594 22.1665 22.7948 22.1665 22.6152V12.3847H5.83317V22.6152C5.83317 22.7948 5.90793 22.9594 6.05746 23.109C6.20699 23.2585 6.37159 23.3333 6.55125 23.3333ZM5.83317 11.2177H22.1665V7.718C22.1665 7.53834 22.0917 7.37374 21.9422 7.22421C21.7927 7.07468 21.6281 6.99992 21.4484 6.99992H6.55125C6.37159 6.99992 6.20699 7.07468 6.05746 7.22421C5.90793 7.37374 5.83317 7.53834 5.83317 7.718V11.2177Z" fill="black"/>
</svg>
