<svg width="28" height="28" viewBox="0 0 28 28" fill="none" xmlns="http://www.w3.org/2000/svg">
<path d="M8.88491 23.3333C8.36652 23.3333 7.9228 23.1487 7.55375 22.7797C7.18469 22.4106 7.00016 21.9669 7.00016 21.4485V6.99992H6.41683C6.25155 6.99992 6.11301 6.94392 6.0012 6.83192C5.8894 6.71992 5.8335 6.58118 5.8335 6.41571C5.8335 6.25024 5.8894 6.11179 6.0012 6.00037C6.11301 5.88896 6.25155 5.83325 6.41683 5.83325H10.5002C10.5002 5.59253 10.5895 5.38272 10.7682 5.20383C10.9469 5.02514 11.1567 4.93579 11.3976 4.93579H16.6027C16.8436 4.93579 17.0534 5.02514 17.2321 5.20383C17.4108 5.38272 17.5002 5.59253 17.5002 5.83325H21.5835C21.7488 5.83325 21.8873 5.88925 21.9991 6.00125C22.1109 6.11325 22.1668 6.25199 22.1668 6.41746C22.1668 6.58293 22.1109 6.72138 21.9991 6.83279C21.8873 6.94421 21.7488 6.99992 21.5835 6.99992H21.0002V21.4485C21.0002 21.9669 20.8156 22.4106 20.4466 22.7797C20.0775 23.1487 19.6338 23.3333 19.1154 23.3333H8.88491ZM12.0265 19.8333C12.1921 19.8333 12.3307 19.7774 12.4421 19.6655C12.5535 19.5537 12.6092 19.4152 12.6092 19.2499V9.91658C12.6092 9.75131 12.5532 9.61276 12.4412 9.50096C12.3292 9.38915 12.1905 9.33325 12.025 9.33325C11.8595 9.33325 11.7211 9.38915 11.6097 9.50096C11.4982 9.61276 11.4425 9.75131 11.4425 9.91658V19.2499C11.4425 19.4152 11.4985 19.5537 11.6105 19.6655C11.7223 19.7774 11.861 19.8333 12.0265 19.8333ZM15.9753 19.8333C16.1408 19.8333 16.2792 19.7774 16.3907 19.6655C16.5021 19.5537 16.5578 19.4152 16.5578 19.2499V9.91658C16.5578 9.75131 16.5018 9.61276 16.3898 9.50096C16.278 9.38915 16.1393 9.33325 15.9739 9.33325C15.8082 9.33325 15.6697 9.38915 15.5582 9.50096C15.4468 9.61276 15.3911 9.75131 15.3911 9.91658V19.2499C15.3911 19.4152 15.4471 19.5537 15.5591 19.6655C15.6711 19.7774 15.8099 19.8333 15.9753 19.8333Z" fill="black"/>
</svg>
