<svg width="28" height="28" viewBox="0 0 28 28" fill="none" xmlns="http://www.w3.org/2000/svg">
<path d="M6.55125 23.3334C6.0142 23.3334 5.56581 23.1536 5.20609 22.7938C4.84637 22.4341 4.6665 21.9857 4.6665 21.4487V6.5515C4.6665 6.01444 4.84637 5.56605 5.20609 5.20633C5.56581 4.84661 6.0142 4.66675 6.55125 4.66675H21.4484C21.9855 4.66675 22.4339 4.84661 22.7936 5.20633C23.1533 5.56605 23.3332 6.01444 23.3332 6.5515V21.4487C23.3332 21.9857 23.1533 22.4341 22.7936 22.7938C22.4339 23.1536 21.9855 23.3334 21.4484 23.3334H6.55125ZM6.55125 22.1667H21.4484C21.6281 22.1667 21.7927 22.092 21.9422 21.9425C22.0917 21.7929 22.1665 21.6283 22.1665 21.4487V6.5515C22.1665 6.37183 22.0917 6.20723 21.9422 6.05771C21.7927 5.90818 21.6281 5.83341 21.4484 5.83341H6.55125C6.37159 5.83341 6.20699 5.90818 6.05746 6.05771C5.90793 6.20723 5.83317 6.37183 5.83317 6.5515V21.4487C5.83317 21.6283 5.90793 21.7929 6.05746 21.9425C6.20699 22.092 6.37159 22.1667 6.55125 22.1667ZM9.33317 19.2501H15.1665C15.3326 19.2501 15.4713 19.1944 15.5827 19.083C15.6941 18.9715 15.7498 18.8328 15.7498 18.6667C15.7498 18.5007 15.6941 18.362 15.5827 18.2505C15.4713 18.1391 15.3326 18.0834 15.1665 18.0834H9.33317C9.16711 18.0834 9.02838 18.1391 8.91696 18.2505C8.80555 18.362 8.74984 18.5007 8.74984 18.6667C8.74984 18.8328 8.80555 18.9715 8.91696 19.083C9.02838 19.1944 9.16711 19.2501 9.33317 19.2501ZM9.33317 14.5834H18.6665C18.8326 14.5834 18.9713 14.5277 19.0827 14.4163C19.1941 14.3049 19.2498 14.1661 19.2498 14.0001C19.2498 13.834 19.1941 13.6953 19.0827 13.5839C18.9713 13.4725 18.8326 13.4167 18.6665 13.4167H9.33317C9.16711 13.4167 9.02838 13.4725 8.91696 13.5839C8.80555 13.6953 8.74984 13.834 8.74984 14.0001C8.74984 14.1661 8.80555 14.3049 8.91696 14.4163C9.02838 14.5277 9.16711 14.5834 9.33317 14.5834ZM9.33317 9.91675H18.6665C18.8326 9.91675 18.9713 9.86104 19.0827 9.74962C19.1941 9.63821 19.2498 9.49947 19.2498 9.33341C19.2498 9.16736 19.1941 9.02862 19.0827 8.91721C18.9713 8.80579 18.8326 8.75008 18.6665 8.75008H9.33317C9.16711 8.75008 9.02838 8.80579 8.91696 8.91721C8.80555 9.02862 8.74984 9.16736 8.74984 9.33341C8.74984 9.49947 8.80555 9.63821 8.91696 9.74962C9.02838 9.86104 9.16711 9.91675 9.33317 9.91675Z" fill="black"/>
</svg>
