<svg width="28" height="28" viewBox="0 0 28 28" fill="none" xmlns="http://www.w3.org/2000/svg">
<path d="M11.1416 16.0597L20.9551 6.24603C21.0688 6.13248 21.2039 6.07191 21.3602 6.06432C21.5163 6.05693 21.6588 6.1175 21.7875 6.24603C21.9162 6.37475 21.9806 6.51349 21.9806 6.66224C21.9806 6.81118 21.9162 6.94992 21.7875 7.07845L11.8014 17.0648C11.6128 17.2532 11.3929 17.3474 11.1416 17.3474C10.8904 17.3474 10.6705 17.2532 10.4819 17.0648L6.21248 12.7951C6.09873 12.6816 6.03923 12.5466 6.03398 12.3903C6.02892 12.2339 6.09066 12.0914 6.21919 11.9627C6.34791 11.8342 6.48664 11.7699 6.63539 11.7699C6.78414 11.7699 6.92288 11.8342 7.0516 11.9627L11.1416 16.0597ZM7.58331 22.1667C7.41726 22.1667 7.27852 22.1109 7.1671 21.9995C7.05569 21.8881 6.99998 21.7494 6.99998 21.5833C6.99998 21.4173 7.05569 21.2785 7.1671 21.1671C7.27852 21.0557 7.41726 21 7.58331 21H20.4166C20.5827 21 20.7214 21.0557 20.8329 21.1671C20.9443 21.2785 21 21.4173 21 21.5833C21 21.7494 20.9443 21.8881 20.8329 21.9995C20.7214 22.1109 20.5827 22.1667 20.4166 22.1667H7.58331Z" fill="black"/>
</svg>
