<svg width="28" height="28" viewBox="0 0 28 28" fill="none" xmlns="http://www.w3.org/2000/svg">
<path d="M14.0002 17.7893C13.8746 17.7893 13.7587 17.7687 13.6525 17.7277C13.5463 17.6865 13.4423 17.615 13.3404 17.5133L10.2849 14.4575C10.1712 14.344 10.1117 14.2101 10.1064 14.0559C10.1012 13.9019 10.1607 13.7606 10.2849 13.6318C10.4134 13.5033 10.5521 13.4379 10.7008 13.4355C10.8498 13.4334 10.9885 13.4966 11.117 13.6251L13.4168 15.9249V6.41659C13.4168 6.25053 13.4725 6.11179 13.584 6.00038C13.6954 5.88896 13.8341 5.83325 14.0002 5.83325C14.1662 5.83325 14.305 5.88896 14.4164 6.00038C14.5278 6.11179 14.5835 6.25053 14.5835 6.41659V15.9249L16.8833 13.6251C16.9968 13.5116 17.1318 13.4522 17.2881 13.4469C17.4445 13.4417 17.5869 13.5033 17.7154 13.6318C17.8397 13.7606 17.9029 13.8982 17.905 14.0448C17.9073 14.1914 17.8441 14.329 17.7154 14.4575L14.6599 17.5133C14.558 17.615 14.454 17.6865 14.3478 17.7277C14.2417 17.7687 14.1258 17.7893 14.0002 17.7893ZM7.71825 22.1666C7.18119 22.1666 6.7328 21.9867 6.37308 21.627C6.01336 21.2673 5.8335 20.8189 5.8335 20.2818V18.0383C5.8335 17.8723 5.8892 17.7335 6.00062 17.6221C6.11204 17.5107 6.25077 17.455 6.41683 17.455C6.58288 17.455 6.72162 17.5107 6.83304 17.6221C6.94445 17.7335 7.00016 17.8723 7.00016 18.0383V20.2818C7.00016 20.4615 7.07493 20.6261 7.22445 20.7756C7.37398 20.9252 7.53858 20.9999 7.71825 20.9999H20.2821C20.4617 20.9999 20.6263 20.9252 20.7759 20.7756C20.9254 20.6261 21.0002 20.4615 21.0002 20.2818V18.0383C21.0002 17.8723 21.0559 17.7335 21.1673 17.6221C21.2787 17.5107 21.4174 17.455 21.5835 17.455C21.7496 17.455 21.8883 17.5107 21.9997 17.6221C22.1111 17.7335 22.1668 17.8723 22.1668 18.0383V20.2818C22.1668 20.8189 21.987 21.2673 21.6272 21.627C21.2675 21.9867 20.8191 22.1666 20.2821 22.1666H7.71825Z" fill="black"/>
</svg>
