<svg width="28" height="28" viewBox="0 0 28 28" fill="none" xmlns="http://www.w3.org/2000/svg">
<path d="M13.9998 19.5193C14.2668 19.5193 14.4906 19.429 14.6713 19.2483C14.8519 19.0677 14.9422 18.8439 14.9422 18.5769C14.9422 18.3099 14.8519 18.0861 14.6713 17.9055C14.4906 17.7251 14.2668 17.6348 13.9998 17.6348C13.7329 17.6348 13.5091 17.7251 13.3284 17.9055C13.1478 18.0861 13.0575 18.3099 13.0575 18.5769C13.0575 18.8439 13.1478 19.0677 13.3284 19.2483C13.5091 19.429 13.7329 19.5193 13.9998 19.5193ZM14.0001 15.2566C14.2482 15.2566 14.456 15.1727 14.6234 15.0049C14.791 14.8373 14.8748 14.6295 14.8748 14.3816V9.13158C14.8748 8.88366 14.7909 8.6758 14.6231 8.508C14.4553 8.34039 14.2475 8.25658 13.9995 8.25658C13.7514 8.25658 13.5437 8.34039 13.3763 8.508C13.2086 8.6758 13.1248 8.88366 13.1248 9.13158V14.3816C13.1248 14.6295 13.2087 14.8373 13.3765 15.0049C13.5443 15.1727 13.7522 15.2566 14.0001 15.2566ZM14.0019 25.0834C12.4689 25.0834 11.0279 24.7925 9.67909 24.2107C8.33022 23.629 7.15695 22.8394 6.15925 21.8421C5.16156 20.8448 4.37163 19.672 3.78946 18.3237C3.20749 16.9755 2.9165 15.5349 2.9165 14.0021C2.9165 12.4691 3.20739 11.0282 3.78917 9.67933C4.37095 8.33047 5.16049 7.15719 6.1578 6.1595C7.1551 5.1618 8.32789 4.37187 9.67617 3.78971C11.0244 3.20773 12.465 2.91675 13.9978 2.91675C15.5308 2.91675 16.9717 3.20764 18.3206 3.78941C19.6694 4.37119 20.8427 5.16073 21.8404 6.15804C22.8381 7.15534 23.628 8.32814 24.2102 9.67641C24.7922 11.0247 25.0832 12.4652 25.0832 13.998C25.0832 15.531 24.7923 16.972 24.2105 18.3208C23.6287 19.6697 22.8392 20.843 21.8419 21.8407C20.8446 22.8384 19.6718 23.6283 18.3235 24.2105C16.9752 24.7924 15.5347 25.0834 14.0019 25.0834ZM13.9998 23.3334C16.6054 23.3334 18.8123 22.4292 20.6207 20.6209C22.429 18.8126 23.3332 16.6056 23.3332 14.0001C23.3332 11.3945 22.429 9.18758 20.6207 7.37925C18.8123 5.57091 16.6054 4.66675 13.9998 4.66675C11.3943 4.66675 9.18734 5.57091 7.379 7.37925C5.57067 9.18758 4.6665 11.3945 4.6665 14.0001C4.6665 16.6056 5.57067 18.8126 7.379 20.6209C9.18734 22.4292 11.3943 23.3334 13.9998 23.3334Z" fill="black"/>
</svg>
