<svg width="28" height="28" viewBox="0 0 28 28" fill="none" xmlns="http://www.w3.org/2000/svg">
<path d="M14.0002 23.3332C12.9457 23.3332 11.9761 23.0744 11.0914 22.5568C10.2066 22.0394 9.498 21.326 8.96541 20.4166H6.41683C6.25155 20.4166 6.11301 20.3606 6.0012 20.2486C5.8894 20.1366 5.8335 19.9978 5.8335 19.8324C5.8335 19.6669 5.8894 19.5284 6.0012 19.417C6.11301 19.3056 6.25155 19.2499 6.41683 19.2499H8.46287C8.28495 18.6815 8.19113 18.1032 8.18141 17.5148C8.17169 16.9266 8.16683 16.3383 8.16683 15.7499H6.41683C6.25155 15.7499 6.11301 15.6939 6.0012 15.5819C5.8894 15.4699 5.8335 15.3312 5.8335 15.1657C5.8335 15.0002 5.8894 14.8618 6.0012 14.7504C6.11301 14.6389 6.25155 14.5832 6.41683 14.5832H8.16683C8.16683 13.9849 8.1642 13.3904 8.15895 12.7997C8.1537 12.2088 8.25501 11.6366 8.46287 11.0832H6.41683C6.25155 11.0832 6.11301 11.0272 6.0012 10.9152C5.8894 10.8032 5.8335 10.6645 5.8335 10.499C5.8335 10.3335 5.8894 10.1951 6.0012 10.0837C6.11301 9.97227 6.25155 9.91656 6.41683 9.91656H8.96541C9.25261 9.40945 9.60747 8.95776 10.03 8.56148C10.4527 8.16501 10.9325 7.8434 11.4694 7.59665L9.76195 5.88252C9.65287 5.78083 9.59833 5.65376 9.59833 5.50131C9.59833 5.34867 9.65647 5.21421 9.77275 5.09794C9.8793 4.99138 10.0081 4.9381 10.1592 4.9381C10.3103 4.9381 10.4404 4.99265 10.5495 5.10173L12.6226 7.1749C13.0772 7.04481 13.5342 6.97977 13.9935 6.97977C14.4525 6.97977 14.9095 7.04481 15.3643 7.1749L17.4958 5.09502C17.5975 4.98594 17.7246 4.9314 17.877 4.9314C18.0296 4.9314 18.1641 4.98953 18.2804 5.10581C18.3869 5.21237 18.4402 5.34119 18.4402 5.49227C18.4402 5.64335 18.3857 5.77344 18.2766 5.88252L16.5625 7.59665C17.0993 7.8434 17.5738 8.16384 17.9858 8.55798C18.398 8.95212 18.7477 9.40498 19.0349 9.91656H21.5835C21.7488 9.91656 21.8873 9.97256 21.9991 10.0846C22.1109 10.1966 22.1668 10.3353 22.1668 10.5008C22.1668 10.6662 22.1109 10.8047 21.9991 10.9161C21.8873 11.0275 21.7488 11.0832 21.5835 11.0832H19.5375C19.7453 11.6366 19.8466 12.2099 19.8414 12.8032C19.8361 13.3966 19.8335 13.99 19.8335 14.5832H21.5835C21.7488 14.5832 21.8873 14.6392 21.9991 14.7512C22.1109 14.8632 22.1668 15.002 22.1668 15.1674C22.1668 15.3329 22.1109 15.4714 21.9991 15.5828C21.8873 15.6942 21.7488 15.7499 21.5835 15.7499H19.8335C19.8335 16.3332 19.8286 16.9203 19.8189 17.511C19.8092 18.1019 19.7154 18.6815 19.5375 19.2499H21.5835C21.7488 19.2499 21.8873 19.3059 21.9991 19.4179C22.1109 19.5299 22.1668 19.6686 22.1668 19.8341C22.1668 19.9996 22.1109 20.138 21.9991 20.2494C21.8873 20.3609 21.7488 20.4166 21.5835 20.4166H19.0349C18.5023 21.326 17.7937 22.0394 16.909 22.5568C16.0242 23.0744 15.0546 23.3332 14.0002 23.3332ZM12.6092 18.0832H15.3911C15.5564 18.0832 15.6949 18.0272 15.8067 17.9152C15.9186 17.8032 15.9745 17.6645 15.9745 17.499C15.9745 17.3335 15.9186 17.1951 15.8067 17.0837C15.6949 16.9723 15.5564 16.9166 15.3911 16.9166H12.6092C12.4439 16.9166 12.3054 16.9726 12.1936 17.0846C12.0818 17.1966 12.0259 17.3353 12.0259 17.5008C12.0259 17.6662 12.0818 17.8047 12.1936 17.9161C12.3054 18.0275 12.4439 18.0832 12.6092 18.0832ZM12.6092 13.4166H15.3911C15.5564 13.4166 15.6949 13.3606 15.8067 13.2486C15.9186 13.1366 15.9745 12.9978 15.9745 12.8324C15.9745 12.6669 15.9186 12.5284 15.8067 12.417C15.6949 12.3056 15.5564 12.2499 15.3911 12.2499H12.6092C12.4439 12.2499 12.3054 12.3059 12.1936 12.4179C12.0818 12.5299 12.0259 12.6686 12.0259 12.8341C12.0259 12.9996 12.0818 13.138 12.1936 13.2494C12.3054 13.3609 12.4439 13.4166 12.6092 13.4166Z" fill="black"/>
</svg>
