<svg width="28" height="28" viewBox="0 0 28 28" fill="none" xmlns="http://www.w3.org/2000/svg">
<path d="M17.0086 10.4082C17.393 10.7927 17.7127 11.3034 17.9678 11.9404C18.2228 12.5776 18.3263 13.2006 18.2785 13.8094C18.2785 13.9665 18.2239 14.0985 18.1148 14.2055C18.0056 14.3124 17.8724 14.3659 17.7153 14.3659C17.5583 14.3659 17.4264 14.3124 17.3195 14.2055C17.2125 14.0985 17.1591 13.9665 17.1591 13.8094C17.2114 13.2888 17.156 12.8027 16.9931 12.351C16.83 11.8993 16.5831 11.5082 16.2526 11.1777C15.922 10.8471 15.5234 10.5981 15.0567 10.4307C14.5901 10.2631 14.1017 10.2129 13.5917 10.2802C13.4346 10.2952 13.2951 10.2518 13.1731 10.1501C13.0512 10.0484 12.9829 9.91902 12.9681 9.76191C12.9531 9.60499 12.9953 9.46558 13.0947 9.34366C13.1942 9.22174 13.3225 9.1533 13.4794 9.13833C14.0987 9.06055 14.7344 9.14542 15.3866 9.39295C16.0388 9.64048 16.5794 9.97891 17.0086 10.4082ZM14 7.00012C13.5407 7.00012 13.0875 7.02588 12.6403 7.07741C12.193 7.12913 11.7496 7.20885 11.31 7.31658C11.1439 7.35994 10.9932 7.33748 10.8579 7.2492C10.7226 7.16092 10.6287 7.04348 10.5764 6.89687C10.5239 6.73529 10.5392 6.58722 10.6222 6.45266C10.7052 6.31811 10.8276 6.22915 10.9891 6.18579C11.4813 6.05862 11.9782 5.96811 12.4798 5.91425C12.9817 5.86038 13.4884 5.83345 14 5.83345C16.3499 5.83345 18.5198 6.43623 20.5097 7.64179C22.4999 8.84734 24.0408 10.4867 25.1326 12.5599C25.2104 12.7005 25.2651 12.8384 25.2966 12.9737C25.3279 13.1091 25.3435 13.2568 25.3435 13.4168C25.3435 13.5768 25.3289 13.7245 25.2998 13.8598C25.2706 13.9952 25.2171 14.1331 25.1393 14.2737C24.7744 14.9918 24.338 15.6575 23.8303 16.2707C23.3225 16.8838 22.7649 17.45 22.1576 17.9691C22.0291 18.0782 21.8877 18.1246 21.7336 18.1082C21.5796 18.0917 21.4502 18.0146 21.3456 17.877C21.2408 17.7395 21.1993 17.5963 21.2211 17.4473C21.2427 17.2986 21.3178 17.1696 21.4466 17.0603C22.0328 16.5534 22.5653 15.9963 23.044 15.389C23.5225 14.7816 23.9301 14.1242 24.2667 13.4168C23.2945 11.4529 21.8896 9.89248 20.0521 8.73554C18.2146 7.57859 16.1972 7.00012 14 7.00012ZM14 21.0001C11.6935 21.0001 9.57329 20.3925 7.63934 19.1772C5.7054 17.9619 4.15364 16.3566 2.98405 14.3612C2.88683 14.2206 2.81761 14.0692 2.77639 13.9071C2.73536 13.7447 2.71484 13.5813 2.71484 13.4168C2.71484 13.2523 2.73429 13.09 2.77318 12.93C2.81207 12.77 2.88012 12.6174 2.97734 12.4724C3.45587 11.6646 3.98641 10.8984 4.56897 10.1737C5.15172 9.44905 5.82595 8.81001 6.59168 8.25662L3.74443 5.40266C3.63534 5.28891 3.57818 5.15397 3.57293 4.99783C3.56768 4.84149 3.62718 4.7012 3.75143 4.57695C3.87548 4.4529 4.01305 4.39087 4.16414 4.39087C4.31522 4.39087 4.45279 4.4529 4.57684 4.57695L23.4232 23.4233C23.5323 23.5324 23.5917 23.6651 23.6014 23.8214C23.6111 23.9777 23.5517 24.1202 23.4232 24.2487C23.2989 24.373 23.1613 24.4351 23.0102 24.4351C22.8591 24.4351 22.7215 24.373 22.5975 24.2487L18.4692 20.1342C17.7737 20.4527 17.0498 20.6767 16.2975 20.8062C15.5452 20.9355 14.7793 21.0001 14 21.0001ZM7.41739 9.08204C6.61414 9.63251 5.90062 10.2727 5.27684 11.0027C4.65326 11.7326 4.13876 12.5373 3.73334 13.4168C4.70557 15.3807 6.11043 16.9411 7.94793 18.098C9.78543 19.255 11.8028 19.8335 14 19.8335C14.6133 19.8335 15.2205 19.7905 15.8218 19.7045C16.423 19.6184 17.0079 19.4639 17.5764 19.2411L15.6736 17.3251C15.415 17.4733 15.1473 17.5693 14.8706 17.6133C14.5939 17.6574 14.3037 17.6795 14 17.6795C12.811 17.6795 11.8033 17.2663 10.9769 16.4399C10.1505 15.6135 9.7373 14.6058 9.7373 13.4168C9.7373 13.1131 9.76307 12.8229 9.81459 12.5462C9.86612 12.2695 9.95848 12.0018 10.0917 11.7432L7.41739 9.08204Z" fill="black"/>
</svg>
