<svg width="28" height="28" viewBox="0 0 28 28" fill="none" xmlns="http://www.w3.org/2000/svg">
<path d="M14.0054 17.6793C15.1909 17.6793 16.1969 17.2644 17.0233 16.4345C17.8497 15.6046 18.2629 14.5969 18.2629 13.4113C18.2629 12.2258 17.8479 11.2198 17.018 10.3935C16.1881 9.56707 15.1804 9.15388 13.9949 9.15388C12.8094 9.15388 11.8034 9.56882 10.977 10.3987C10.1506 11.2286 9.73743 12.2363 9.73743 13.4218C9.73743 14.6074 10.1524 15.6133 10.9823 16.4397C11.8122 17.2661 12.8199 17.6793 14.0054 17.6793ZM14.0001 16.5666C13.1251 16.5666 12.3814 16.2603 11.7689 15.6478C11.1564 15.0353 10.8501 14.2916 10.8501 13.4166C10.8501 12.5416 11.1564 11.7978 11.7689 11.1853C12.3814 10.5728 13.1251 10.2666 14.0001 10.2666C14.8751 10.2666 15.6189 10.5728 16.2314 11.1853C16.8439 11.7978 17.1501 12.5416 17.1501 13.4166C17.1501 14.2916 16.8439 15.0353 16.2314 15.6478C15.6189 16.2603 14.8751 16.5666 14.0001 16.5666ZM14.0001 20.9999C11.6936 20.9999 9.57828 20.3897 7.65406 19.1691C5.72983 17.9486 4.17544 16.3482 2.99089 14.368C2.89367 14.2078 2.82444 14.0499 2.78322 13.8943C2.74219 13.7388 2.72168 13.5791 2.72168 13.4154C2.72168 13.2517 2.74219 13.0924 2.78322 12.9377C2.82444 12.7829 2.89367 12.6254 2.99089 12.4652C4.17544 10.4849 5.72983 8.88457 7.65406 7.66404C9.57828 6.44352 11.6936 5.83325 14.0001 5.83325C16.3066 5.83325 18.422 6.44352 20.3462 7.66404C22.2704 8.88457 23.8248 10.4849 25.0094 12.4652C25.1066 12.6254 25.1758 12.7833 25.2171 12.9388C25.2581 13.0944 25.2786 13.254 25.2786 13.4178C25.2786 13.5815 25.2581 13.7407 25.2171 13.8955C25.1758 14.0503 25.1066 14.2078 25.0094 14.368C23.8248 16.3482 22.2704 17.9486 20.3462 19.1691C18.422 20.3897 16.3066 20.9999 14.0001 20.9999ZM14.0001 19.8333C16.1974 19.8333 18.2147 19.2548 20.0522 18.0978C21.8897 16.9409 23.2946 15.3805 24.2668 13.4166C23.2946 11.4527 21.8897 9.89228 20.0522 8.73534C18.2147 7.57839 16.1974 6.99992 14.0001 6.99992C11.8029 6.99992 9.78556 7.57839 7.94806 8.73534C6.11056 9.89228 4.70569 11.4527 3.73347 13.4166C4.70569 15.3805 6.11056 16.9409 7.94806 18.0978C9.78556 19.2548 11.8029 19.8333 14.0001 19.8333Z" fill="black"/>
</svg>
