<svg width="28" height="28" viewBox="0 0 28 28" fill="none" xmlns="http://www.w3.org/2000/svg">
<path d="M13.125 21.8749H11.6667C11.4188 21.8749 11.211 21.791 11.0434 21.6232C10.8756 21.4554 10.7917 21.2475 10.7917 20.9996C10.7917 20.7515 10.8756 20.5438 11.0434 20.3763C11.211 20.2087 11.4188 20.1249 11.6667 20.1249H13.125V17.1365C11.6112 16.9166 10.3579 16.2312 9.36483 15.0803C8.37161 13.9293 7.875 12.585 7.875 11.0474C7.875 9.35279 8.47214 7.91429 9.66642 6.73188C10.8609 5.54946 12.3054 4.95825 14 4.95825C15.6946 4.95825 17.1391 5.54946 18.3336 6.73188C19.5279 7.91429 20.125 9.35279 20.125 11.0474C20.125 12.585 19.6284 13.9293 18.6352 15.0803C17.6421 16.2312 16.3888 16.9166 14.875 17.1365V20.1249H16.3333C16.5813 20.1249 16.789 20.2088 16.9566 20.3766C17.1244 20.5444 17.2083 20.7523 17.2083 21.0002C17.2083 21.2483 17.1244 21.4561 16.9566 21.6235C16.789 21.7911 16.5813 21.8749 16.3333 21.8749H14.875V23.3333C14.875 23.5812 14.7911 23.7889 14.6233 23.9565C14.4555 24.1243 14.2476 24.2083 13.9997 24.2083C13.7516 24.2083 13.5438 24.1243 13.3764 23.9565C13.2088 23.7889 13.125 23.5812 13.125 23.3333V21.8749ZM14.0017 15.4583C15.2106 15.4583 16.2417 15.031 17.0952 14.1764C17.9484 13.322 18.375 12.2904 18.375 11.0815C18.375 9.87264 17.9477 8.8415 17.0931 7.98809C16.2387 7.13486 15.2071 6.70825 13.9983 6.70825C12.7894 6.70825 11.7583 7.13554 10.9048 7.99013C10.0516 8.84452 9.625 9.87614 9.625 11.085C9.625 12.2939 10.0523 13.325 10.9069 14.1784C11.7613 15.0316 12.7929 15.4583 14.0017 15.4583Z" fill="black"/>
</svg>
