<svg width="28" height="28" viewBox="0 0 28 28" fill="none" xmlns="http://www.w3.org/2000/svg">
<path d="M13.4168 15.2542V20.1475C13.4168 20.3135 13.4725 20.4522 13.584 20.5637C13.6954 20.6751 13.8341 20.7308 14.0002 20.7308C14.1662 20.7308 14.305 20.6751 14.4164 20.5637C14.5278 20.4522 14.5835 20.3135 14.5835 20.1475V15.2542L16.6208 17.2915C16.6776 17.3482 16.7414 17.3908 16.8124 17.4192C16.8836 17.4476 16.9546 17.4607 17.0256 17.4586C17.0966 17.4562 17.1703 17.4409 17.2467 17.4125C17.3229 17.3841 17.3894 17.3415 17.4462 17.2847C17.5705 17.156 17.6336 17.0184 17.6358 16.8717C17.6381 16.7251 17.5749 16.5876 17.4462 16.459L14.6599 13.6725C14.558 13.5708 14.454 13.4993 14.3478 13.4581C14.2417 13.4171 14.1258 13.3965 14.0002 13.3965C13.8746 13.3965 13.7587 13.4171 13.6525 13.4581C13.5463 13.4993 13.4423 13.5708 13.3404 13.6725L10.5541 16.459C10.4404 16.5726 10.3809 16.7065 10.3756 16.8607C10.3704 17.0147 10.4321 17.156 10.5608 17.2847C10.6894 17.4088 10.8269 17.472 10.9735 17.4743C11.1201 17.4765 11.2577 17.4133 11.3862 17.2847L13.4168 15.2542ZM7.71825 24.5C7.18119 24.5 6.7328 24.3201 6.37308 23.9604C6.01336 23.6007 5.8335 23.1523 5.8335 22.6152V5.38475C5.8335 4.84769 6.01336 4.39931 6.37308 4.03958C6.7328 3.67986 7.18119 3.5 7.71825 3.5H16.1337C16.3851 3.5 16.6293 3.55085 16.8664 3.65254C17.1034 3.75424 17.3064 3.88957 17.4754 4.05854L21.6083 8.19146C21.7773 8.36043 21.9126 8.56343 22.0143 8.80046C22.116 9.03749 22.1668 9.28171 22.1668 9.53312V22.6152C22.1668 23.1523 21.987 23.6007 21.6272 23.9604C21.2675 24.3201 20.8191 24.5 20.2821 24.5H7.71825ZM16.3335 8.39096V4.66667H7.71825C7.53858 4.66667 7.37398 4.74143 7.22445 4.89096C7.07493 5.04049 7.00016 5.20508 7.00016 5.38475V22.6152C7.00016 22.7949 7.07493 22.9595 7.22445 23.109C7.37398 23.2586 7.53858 23.3333 7.71825 23.3333H20.2821C20.4617 23.3333 20.6263 23.2586 20.7759 23.109C20.9254 22.9595 21.0002 22.7949 21.0002 22.6152V9.33333H17.2759C17.005 9.33333 16.7802 9.24399 16.6015 9.06529C16.4228 8.8866 16.3335 8.66182 16.3335 8.39096Z" fill="black"/>
</svg>
