<svg width="28" height="28" viewBox="0 0 28 28" fill="none" xmlns="http://www.w3.org/2000/svg">
<path d="M13.4168 16.9167V19.8333C13.4168 19.9986 13.4728 20.1372 13.5848 20.249C13.6968 20.3608 13.8356 20.4167 14.001 20.4167C14.1665 20.4167 14.305 20.3608 14.4164 20.249C14.5278 20.1372 14.5835 19.9986 14.5835 19.8333V16.9167H17.5002C17.6654 16.9167 17.804 16.8607 17.9158 16.7487C18.0276 16.6367 18.0835 16.4979 18.0835 16.3325C18.0835 16.167 18.0276 16.0285 17.9158 15.9171C17.804 15.8057 17.6654 15.75 17.5002 15.75H14.5835V12.8333C14.5835 12.6681 14.5275 12.5295 14.4155 12.4177C14.3035 12.3059 14.1648 12.25 13.9993 12.25C13.8338 12.25 13.6954 12.3059 13.584 12.4177C13.4725 12.5295 13.4168 12.6681 13.4168 12.8333V15.75H10.5002C10.3349 15.75 10.1963 15.806 10.0845 15.918C9.97273 16.03 9.91683 16.1687 9.91683 16.3342C9.91683 16.4997 9.97273 16.6381 10.0845 16.7495C10.1963 16.861 10.3349 16.9167 10.5002 16.9167H13.4168ZM7.71825 24.5C7.18119 24.5 6.7328 24.3201 6.37308 23.9604C6.01336 23.6007 5.8335 23.1523 5.8335 22.6152V5.38475C5.8335 4.84769 6.01336 4.39931 6.37308 4.03958C6.7328 3.67986 7.18119 3.5 7.71825 3.5H16.1337C16.3917 3.5 16.6376 3.55085 16.8713 3.65254C17.1051 3.75424 17.3064 3.88957 17.4754 4.05854L21.6083 8.19146C21.7773 8.36043 21.9126 8.56178 22.0143 8.7955C22.116 9.02922 22.1668 9.2751 22.1668 9.53312V22.6152C22.1668 23.1523 21.987 23.6007 21.6272 23.9604C21.2675 24.3201 20.8191 24.5 20.2821 24.5H7.71825ZM16.3335 8.4V4.66667H7.71825C7.53858 4.66667 7.37398 4.74143 7.22445 4.89096C7.07493 5.04049 7.00016 5.20508 7.00016 5.38475V22.6152C7.00016 22.7949 7.07493 22.9595 7.22445 23.109C7.37398 23.2586 7.53858 23.3333 7.71825 23.3333H20.2821C20.4617 23.3333 20.6263 23.2586 20.7759 23.109C20.9254 22.9595 21.0002 22.7949 21.0002 22.6152V9.33333H17.2665C17.0019 9.33333 16.7802 9.24389 16.6015 9.065C16.4228 8.88611 16.3335 8.66444 16.3335 8.4Z" fill="black"/>
</svg>
