<svg width="28" height="28" viewBox="0 0 28 28" fill="none" xmlns="http://www.w3.org/2000/svg">
<path d="M13.9995 24.2084C13.7514 24.2084 13.5437 24.1245 13.3763 23.9567C13.2086 23.7891 13.1248 23.5813 13.1248 23.3334V18.6667C13.1248 18.4188 13.2087 18.2111 13.3765 18.0435C13.5443 17.8756 13.7522 17.7917 14.0001 17.7917C14.2482 17.7917 14.456 17.8756 14.6234 18.0435C14.791 18.2111 14.8748 18.4188 14.8748 18.6667V20.1251H23.3332C23.5811 20.1251 23.7888 20.209 23.9565 20.3768C24.1243 20.5446 24.2082 20.7525 24.2082 21.0004C24.2082 21.2485 24.1243 21.4562 23.9565 21.6237C23.7888 21.7913 23.5811 21.8751 23.3332 21.8751H14.8748V23.3334C14.8748 23.5813 14.7909 23.7891 14.6231 23.9567C14.4553 24.1245 14.2475 24.2084 13.9995 24.2084ZM4.6665 21.8751C4.41859 21.8751 4.21082 21.7912 4.04321 21.6234C3.87541 21.4556 3.7915 21.2477 3.7915 20.9998C3.7915 20.7517 3.87541 20.5439 4.04321 20.3765C4.21082 20.2089 4.41859 20.1251 4.6665 20.1251H9.33317C9.58109 20.1251 9.78885 20.209 9.95646 20.3768C10.1243 20.5446 10.2082 20.7525 10.2082 21.0004C10.2082 21.2485 10.1243 21.4562 9.95646 21.6237C9.78885 21.7913 9.58109 21.8751 9.33317 21.8751H4.6665ZM9.33288 17.2084C9.08477 17.2084 8.877 17.1245 8.70959 16.9567C8.54198 16.7891 8.45817 16.5813 8.45817 16.3334V14.8751H4.6665C4.41859 14.8751 4.21082 14.7912 4.04321 14.6234C3.87541 14.4556 3.7915 14.2477 3.7915 13.9998C3.7915 13.7517 3.87541 13.5439 4.04321 13.3765C4.21082 13.2089 4.41859 13.1251 4.6665 13.1251H8.45817V11.6667C8.45817 11.4188 8.54207 11.2111 8.70988 11.0435C8.87768 10.8756 9.08555 10.7917 9.33346 10.7917C9.58157 10.7917 9.78934 10.8756 9.95675 11.0435C10.1244 11.2111 10.2082 11.4188 10.2082 11.6667V16.3334C10.2082 16.5813 10.1243 16.7891 9.95646 16.9567C9.78866 17.1245 9.58079 17.2084 9.33288 17.2084ZM13.9998 14.8751C13.7519 14.8751 13.5442 14.7912 13.3765 14.6234C13.2087 14.4556 13.1248 14.2477 13.1248 13.9998C13.1248 13.7517 13.2087 13.5439 13.3765 13.3765C13.5442 13.2089 13.7519 13.1251 13.9998 13.1251H23.3332C23.5811 13.1251 23.7888 13.209 23.9565 13.3768C24.1243 13.5446 24.2082 13.7525 24.2082 14.0004C24.2082 14.2485 24.1243 14.4562 23.9565 14.6237C23.7888 14.7913 23.5811 14.8751 23.3332 14.8751H13.9998ZM18.6662 10.2084C18.4181 10.2084 18.2103 10.1245 18.0429 9.95671C17.8753 9.78909 17.7915 9.58133 17.7915 9.33341V4.66675C17.7915 4.41883 17.8754 4.21107 18.0432 4.04346C18.211 3.87565 18.4189 3.79175 18.6668 3.79175C18.9149 3.79175 19.1227 3.87565 19.2901 4.04346C19.4577 4.21107 19.5415 4.41883 19.5415 4.66675V6.12508H23.3332C23.5811 6.12508 23.7888 6.20898 23.9565 6.37679C24.1243 6.5446 24.2082 6.75246 24.2082 7.00037C24.2082 7.24848 24.1243 7.45625 23.9565 7.62366C23.7888 7.79128 23.5811 7.87508 23.3332 7.87508H19.5415V9.33341C19.5415 9.58133 19.4576 9.78909 19.2898 9.95671C19.122 10.1245 18.9141 10.2084 18.6662 10.2084ZM4.6665 7.87508C4.41859 7.87508 4.21082 7.79118 4.04321 7.62337C3.87541 7.45557 3.7915 7.24771 3.7915 6.99979C3.7915 6.75168 3.87541 6.54391 4.04321 6.3765C4.21082 6.20889 4.41859 6.12508 4.6665 6.12508H13.9998C14.2478 6.12508 14.4555 6.20898 14.6231 6.37679C14.7909 6.5446 14.8748 6.75246 14.8748 7.00037C14.8748 7.24848 14.7909 7.45625 14.6231 7.62366C14.4555 7.79128 14.2478 7.87508 13.9998 7.87508H4.6665Z" fill="black"/>
</svg>
