<svg width="28" height="28" viewBox="0 0 28 28" fill="none" xmlns="http://www.w3.org/2000/svg">
<path d="M5.8335 22.1667V12.0257C5.8335 11.7273 5.90029 11.4445 6.03387 11.1776C6.16726 10.9106 6.35179 10.6908 6.58745 10.5181L12.8694 5.7616C13.1982 5.51038 13.5739 5.38477 13.9967 5.38477C14.4194 5.38477 14.7975 5.51038 15.131 5.7616L21.4129 10.5181C21.6485 10.6908 21.8331 10.9106 21.9665 11.1776C22.1 11.4445 22.1668 11.7273 22.1668 12.0257V22.1667C22.1668 22.4794 22.0506 22.752 21.818 22.9845C21.5854 23.2171 21.3128 23.3334 21.0002 23.3334H17.0516C16.7844 23.3334 16.5606 23.243 16.3802 23.0624C16.1995 22.8818 16.1092 22.6579 16.1092 22.391V16.8269C16.1092 16.5599 16.0189 16.3361 15.8382 16.1554C15.6576 15.975 15.4338 15.8848 15.1668 15.8848H12.8335C12.5665 15.8848 12.3427 15.975 12.1621 16.1554C11.9814 16.3361 11.8911 16.5599 11.8911 16.8269V22.391C11.8911 22.6579 11.8008 22.8818 11.6202 23.0624C11.4397 23.243 11.2159 23.3334 10.9487 23.3334H7.00016C6.6875 23.3334 6.41489 23.2171 6.18233 22.9845C5.94977 22.752 5.8335 22.4794 5.8335 22.1667Z" fill="black"/>
</svg>
