<svg width="28" height="28" viewBox="0 0 28 28" fill="none" xmlns="http://www.w3.org/2000/svg">
<path d="M14 22.4809C13.5187 22.4809 13.1068 22.3095 12.7642 21.9667C12.4214 21.6241 12.25 21.2121 12.25 20.7309C12.25 20.2496 12.4214 19.8376 12.7642 19.4948C13.1068 19.1522 13.5187 18.9809 14 18.9809C14.4813 18.9809 14.8932 19.1522 15.2358 19.4948C15.5786 19.8376 15.75 20.2496 15.75 20.7309C15.75 21.2121 15.5786 21.6241 15.2358 21.9667C14.8932 22.3095 14.4813 22.4809 14 22.4809ZM14 15.7501C13.5187 15.7501 13.1068 15.5787 12.7642 15.2359C12.4214 14.8933 12.25 14.4813 12.25 14.0001C12.25 13.5188 12.4214 13.1069 12.7642 12.7643C13.1068 12.4215 13.5187 12.2501 14 12.2501C14.4813 12.2501 14.8932 12.4215 15.2358 12.7643C15.5786 13.1069 15.75 13.5188 15.75 14.0001C15.75 14.4813 15.5786 14.8933 15.2358 15.2359C14.8932 15.5787 14.4813 15.7501 14 15.7501ZM14 9.01929C13.5187 9.01929 13.1068 8.84798 12.7642 8.50537C12.4214 8.16256 12.25 7.75054 12.25 7.26929C12.25 6.78804 12.4214 6.37611 12.7642 6.0335C13.1068 5.69069 13.5187 5.51929 14 5.51929C14.4813 5.51929 14.8932 5.69069 15.2358 6.0335C15.5786 6.37611 15.75 6.78804 15.75 7.26929C15.75 7.75054 15.5786 8.16256 15.2358 8.50537C14.8932 8.84798 14.4813 9.01929 14 9.01929Z" fill="black"/>
</svg>
