<svg width="28" height="28" viewBox="0 0 28 28" fill="none" xmlns="http://www.w3.org/2000/svg">
<path d="M20.2375 18.1283C20.2375 19.8954 19.6287 21.3991 18.411 22.6395C17.1936 23.8798 15.7047 24.5 13.9442 24.5C12.1837 24.5 10.6909 23.8798 9.46592 22.6395C8.24092 21.3991 7.62842 19.8954 7.62842 18.1283V7.94238C7.62842 6.70843 8.05279 5.6595 8.90154 4.79558C9.75049 3.93186 10.7919 3.5 12.0259 3.5C13.2598 3.5 14.3012 3.93186 15.1499 4.79558C15.9989 5.6595 16.4233 6.70843 16.4233 7.94238V17.5898C16.4233 18.2749 16.1843 18.8649 15.7061 19.36C15.2282 19.855 14.6456 20.1025 13.9585 20.1025C13.2713 20.1025 12.6802 19.8589 12.1851 19.3716C11.6901 18.8843 11.4425 18.2904 11.4425 17.5898V8.48079C11.4425 8.31551 11.4985 8.17697 11.6105 8.06517C11.7223 7.95336 11.861 7.89746 12.0265 7.89746C12.1921 7.89746 12.3307 7.95336 12.4421 8.06517C12.5535 8.17697 12.6092 8.31551 12.6092 8.48079V17.5898C12.6092 17.9622 12.7367 18.2796 12.9916 18.5421C13.2467 18.8046 13.5604 18.9359 13.9328 18.9359C14.3053 18.9359 14.6191 18.8046 14.874 18.5421C15.1291 18.2796 15.2567 17.9622 15.2567 17.5898V7.91992C15.2522 7.01342 14.9405 6.24458 14.3216 5.61342C13.7029 4.98225 12.9376 4.66667 12.0259 4.66667C11.1211 4.66667 10.3565 4.98604 9.73192 5.62479C9.10736 6.26335 8.79508 7.03587 8.79508 7.94238V18.1283C8.79061 19.5687 9.28946 20.7963 10.2916 21.8111C11.2936 22.8259 12.5138 23.3333 13.9523 23.3333C15.3702 23.3333 16.5755 22.8259 17.5681 21.8111C18.5608 20.7963 19.0617 19.5687 19.0708 18.1283V8.48079C19.0708 8.31551 19.1267 8.17697 19.2385 8.06517C19.3505 7.95336 19.4892 7.89746 19.6547 7.89746C19.8202 7.89746 19.9587 7.95336 20.0703 8.06517C20.1818 8.17697 20.2375 8.31551 20.2375 8.48079V18.1283Z" fill="black"/>
</svg>
