<svg width="28" height="28" viewBox="0 0 28 28" fill="none" xmlns="http://www.w3.org/2000/svg">
<path d="M15.1648 23.3334C14.0757 23.3334 13.0239 23.1488 12.0093 22.7795C10.9947 22.4103 10.0706 21.8935 9.23698 21.229C9.10087 21.1198 9.02756 20.9833 9.01706 20.8195C9.00675 20.6556 9.06587 20.5094 9.19439 20.3809C9.32312 20.2521 9.47303 20.1916 9.64414 20.1992C9.81545 20.2066 9.96994 20.2701 10.1076 20.3899C10.8331 20.9552 11.6142 21.3927 12.4509 21.7024C13.2877 22.012 14.1931 22.1667 15.1669 22.1667C17.4374 22.1667 19.3661 21.3732 20.9529 19.7862C22.54 18.1993 23.3335 16.2706 23.3335 14.0001C23.3335 11.7445 22.5363 9.81953 20.9419 8.22508C19.3474 6.63064 17.4224 5.83341 15.1669 5.83341C12.9113 5.83341 10.9863 6.63064 9.39185 8.22508C7.79741 9.81953 7.00019 11.7445 7.00019 14.0001V15.6177L9.12031 13.4975C9.22589 13.3883 9.35773 13.3336 9.51581 13.3336C9.67389 13.3336 9.80981 13.3883 9.92356 13.4975C10.0523 13.6113 10.1129 13.75 10.1053 13.9137C10.0979 14.0775 10.0373 14.2162 9.92356 14.33L7.0766 17.1769C6.88799 17.3655 6.66807 17.4598 6.41685 17.4598C6.16563 17.4598 5.94571 17.3655 5.7571 17.1769L2.90344 14.3232C2.78969 14.2095 2.73019 14.0708 2.72494 13.907C2.71969 13.7431 2.77763 13.6066 2.89877 13.4975C3.0201 13.3883 3.16263 13.3362 3.32635 13.3415C3.49008 13.3467 3.62658 13.4062 3.73585 13.52L5.83352 15.6468V14.0001C5.83352 12.7051 6.07696 11.4921 6.56385 10.3612C7.05074 9.23036 7.7171 8.242 8.56294 7.39616C9.40877 6.55033 10.397 5.88397 11.5277 5.39708C12.6582 4.91019 13.8709 4.66675 15.1657 4.66675C16.4603 4.66675 17.6733 4.91019 18.8048 5.39708C19.9363 5.88397 20.9249 6.55033 21.7708 7.39616C22.6166 8.242 23.283 9.23016 23.7699 10.3607C24.2567 11.4912 24.5002 12.7036 24.5002 13.998C24.5002 16.5871 23.5926 18.7902 21.7775 20.6075C19.9623 22.4248 17.7581 23.3334 15.1648 23.3334ZM12.8335 18.3975C12.5411 18.3975 12.296 18.2987 12.0982 18.1009C11.9005 17.903 11.8016 17.6578 11.8016 17.3653V13.8653C11.8016 13.5731 11.9134 13.328 12.137 13.13C12.3606 12.9323 12.6377 12.8334 12.9683 12.8334V11.532C12.9683 10.9275 13.1835 10.4099 13.614 9.97916C14.0445 9.54866 14.5621 9.33341 15.1669 9.33341C15.7716 9.33341 16.2892 9.54866 16.7197 9.97916C17.1502 10.4099 17.3654 10.9275 17.3654 11.532V12.8334C17.696 12.8334 17.9731 12.9323 18.1967 13.13C18.4203 13.328 18.5321 13.5731 18.5321 13.8653V17.3653C18.5321 17.6578 18.4332 17.903 18.2355 18.1009C18.0377 18.2987 17.7926 18.3975 17.5002 18.3975H12.8335ZM13.8654 12.8334H16.4683V11.5407C16.4683 11.1746 16.3415 10.8648 16.0879 10.6112C15.8344 10.3577 15.5274 10.2309 15.1669 10.2309C14.8064 10.2309 14.4993 10.3577 14.2458 10.6112C13.9922 10.8648 13.8654 11.1746 13.8654 11.5407V12.8334Z" fill="black"/>
</svg>
