<svg width="28" height="28" viewBox="0 0 28 28" fill="none" xmlns="http://www.w3.org/2000/svg">
<path d="M6.55125 23.3334C6.0142 23.3334 5.56581 23.1535 5.20609 22.7938C4.84637 22.4341 4.6665 21.9857 4.6665 21.4487V6.5515C4.6665 6.01444 4.84637 5.56605 5.20609 5.20633C5.56581 4.84661 6.0142 4.66675 6.55125 4.66675H13.439C13.605 4.66675 13.7438 4.72246 13.8552 4.83387C13.9666 4.94529 14.0223 5.08403 14.0223 5.25008C14.0223 5.41614 13.9666 5.55487 13.8552 5.66629C13.7438 5.77771 13.605 5.83341 13.439 5.83341H6.55125C6.37159 5.83341 6.20699 5.90818 6.05746 6.05771C5.90793 6.20723 5.83317 6.37183 5.83317 6.5515V21.4487C5.83317 21.6283 5.90793 21.7929 6.05746 21.9425C6.20699 22.092 6.37159 22.1667 6.55125 22.1667H13.439C13.605 22.1667 13.7438 22.2225 13.8552 22.3339C13.9666 22.4453 14.0223 22.584 14.0223 22.7501C14.0223 22.9161 13.9666 23.0549 13.8552 23.1663C13.7438 23.2777 13.605 23.3334 13.439 23.3334H6.55125ZM21.0693 14.5834H11.3075C11.1414 14.5834 11.0027 14.5277 10.8913 14.4163C10.7798 14.3049 10.7241 14.1661 10.7241 14.0001C10.7241 13.834 10.7798 13.6953 10.8913 13.5839C11.0027 13.4725 11.1414 13.4167 11.3075 13.4167H21.0693L18.7698 11.117C18.6605 11.0079 18.6021 10.8763 18.5948 10.7223C18.5872 10.5681 18.6455 10.4268 18.7698 10.2982C18.8938 10.1695 19.0314 10.1041 19.1825 10.102C19.3335 10.0996 19.4734 10.1628 19.6022 10.2915L22.6513 13.3403C22.8397 13.5289 22.9339 13.7489 22.9339 14.0001C22.9339 14.2513 22.8397 14.4712 22.6513 14.6598L19.6022 17.7086C19.4884 17.8224 19.3534 17.8819 19.197 17.8871C19.0407 17.8924 18.8983 17.8306 18.7698 17.7019C18.6455 17.5734 18.5845 17.4346 18.5869 17.2857C18.589 17.137 18.6522 17.0006 18.7765 16.8765L21.0693 14.5834Z" fill="black"/>
</svg>
