<svg width="28" height="28" viewBox="0 0 28 28" fill="none" xmlns="http://www.w3.org/2000/svg">
<path d="M23.0418 6.01263V10.4999C23.0418 10.7478 22.9579 10.9556 22.7901 11.1232C22.6223 11.291 22.4145 11.3749 22.1665 11.3749C21.9184 11.3749 21.7107 11.291 21.5432 11.1232C21.3756 10.9556 21.2918 10.7478 21.2918 10.4999V7.96679L15.9812 13.2372C16.3582 13.789 16.657 14.3736 16.8775 14.991C17.0982 15.6084 17.2085 16.2502 17.2085 16.9166C17.2085 18.6242 16.6147 20.0719 15.427 21.2598C14.2393 22.4477 12.7918 23.0416 11.0844 23.0416C9.37715 23.0416 7.92941 22.4478 6.74116 21.2601C5.55272 20.0724 4.9585 18.6249 4.9585 16.9175C4.9585 15.2102 5.55243 13.7625 6.74029 12.5743C7.92815 11.3858 9.37589 10.7916 11.0835 10.7916C11.7401 10.7916 12.3777 10.8989 12.9962 11.1136C13.6146 11.3283 14.1937 11.63 14.7337 12.0189L20.0444 6.70825H17.5002C17.2522 6.70825 17.0445 6.62435 16.8769 6.45654C16.7091 6.28874 16.6252 6.08088 16.6252 5.83296C16.6252 5.58485 16.7091 5.37709 16.8769 5.20967C17.0445 5.04206 17.2522 4.95825 17.5002 4.95825H21.9875C22.2861 4.95825 22.5366 5.05927 22.7388 5.26129C22.9408 5.46352 23.0418 5.71396 23.0418 6.01263ZM11.0817 12.5416C9.87289 12.5416 8.84175 12.9689 7.98833 13.8235C7.13511 14.6779 6.7085 15.7095 6.7085 16.9183C6.7085 18.1272 7.13579 19.1583 7.99037 20.0118C8.84476 20.865 9.87639 21.2916 11.0852 21.2916C12.2941 21.2916 13.3252 20.8643 14.1787 20.0097C15.0319 19.1553 15.4585 18.1237 15.4585 16.9148C15.4585 15.706 15.0312 14.6748 14.1766 13.8214C13.3222 12.9682 12.2906 12.5416 11.0817 12.5416Z" fill="black"/>
</svg>
