<svg width="28" height="28" viewBox="0 0 28 28" fill="none" xmlns="http://www.w3.org/2000/svg">
<path d="M5.83333 23.3334C5.66806 23.3334 5.52951 23.2774 5.41771 23.1654C5.3059 23.0534 5.25 22.9147 5.25 22.7492C5.25 22.5837 5.3059 22.4453 5.41771 22.3339C5.52951 22.2225 5.66806 22.1667 5.83333 22.1667H7.58333V5.60912C7.58333 5.34215 7.67278 5.11834 7.85167 4.93771C8.03056 4.75707 8.25222 4.66675 8.51667 4.66675H15.9836C16.2483 4.66675 16.4699 4.75707 16.6486 4.93771C16.8273 5.11834 16.9167 5.34215 16.9167 5.60912V5.83341H19.4743C19.7413 5.83341 19.9651 5.92373 20.1457 6.10437C20.3263 6.28501 20.4167 6.50882 20.4167 6.77579V22.1667H22.1667C22.3319 22.1667 22.4705 22.2227 22.5823 22.3347C22.6941 22.4467 22.75 22.5855 22.75 22.751C22.75 22.9164 22.6941 23.0549 22.5823 23.1663C22.4705 23.2777 22.3319 23.3334 22.1667 23.3334H20.2035C19.9252 23.3334 19.6967 23.2431 19.518 23.0625C19.3393 22.8818 19.25 22.658 19.25 22.391V7.00008H16.9167V22.391C16.9167 22.658 16.8263 22.8818 16.6457 23.0625C16.4651 23.2431 16.2413 23.3334 15.9743 23.3334H5.83333ZM14.3141 14.0001C14.3141 13.7594 14.2248 13.5496 14.0461 13.3707C13.8672 13.192 13.6574 13.1026 13.4167 13.1026C13.1759 13.1026 12.9661 13.192 12.7873 13.3707C12.6086 13.5496 12.5192 13.7594 12.5192 14.0001C12.5192 14.2408 12.6086 14.4506 12.7873 14.6295C12.9661 14.8082 13.1759 14.8975 13.4167 14.8975C13.6574 14.8975 13.8672 14.8082 14.0461 14.6295C14.2248 14.4506 14.3141 14.2408 14.3141 14.0001ZM8.75 22.1667H15.75V5.83341H8.75V22.1667Z" fill="black"/>
</svg>
