<svg width="28" height="28" viewBox="0 0 28 28" fill="none" xmlns="http://www.w3.org/2000/svg">
<path d="M5.24984 20.1475C5.08456 20.1475 4.94602 20.0915 4.83421 19.9795C4.72241 19.8675 4.6665 19.7287 4.6665 19.5632C4.6665 19.3978 4.72241 19.2593 4.83421 19.1479C4.94602 19.0365 5.08456 18.9808 5.24984 18.9808H22.7498C22.9151 18.9808 23.0537 19.0368 23.1655 19.1488C23.2773 19.2606 23.3332 19.3993 23.3332 19.565C23.3332 19.7305 23.2773 19.8689 23.1655 19.9803C23.0537 20.0917 22.9151 20.1475 22.7498 20.1475H5.24984ZM5.24984 14.5833C5.08456 14.5833 4.94602 14.5273 4.83421 14.4153C4.72241 14.3033 4.6665 14.1646 4.6665 13.9991C4.6665 13.8337 4.72241 13.6952 4.83421 13.5838C4.94602 13.4724 5.08456 13.4167 5.24984 13.4167H22.7498C22.9151 13.4167 23.0537 13.4727 23.1655 13.5847C23.2773 13.6967 23.3332 13.8354 23.3332 14.0009C23.3332 14.1663 23.2773 14.3048 23.1655 14.4162C23.0537 14.5276 22.9151 14.5833 22.7498 14.5833H5.24984ZM5.24984 9.01921C5.08456 9.01921 4.94602 8.96321 4.83421 8.85121C4.72241 8.7394 4.6665 8.60066 4.6665 8.435C4.6665 8.26953 4.72241 8.13108 4.83421 8.01967C4.94602 7.90825 5.08456 7.85254 5.24984 7.85254H22.7498C22.9151 7.85254 23.0537 7.90854 23.1655 8.02054C23.2773 8.13254 23.3332 8.27128 23.3332 8.43675C23.3332 8.60222 23.2773 8.74066 23.1655 8.85208C23.0537 8.9635 22.9151 9.01921 22.7498 9.01921H5.24984Z" fill="black"/>
</svg>
