<svg width="28" height="28" viewBox="0 0 28 28" fill="none" xmlns="http://www.w3.org/2000/svg">
<path d="M7.08983 19.8333L5.10183 21.821C4.80725 22.1158 4.46658 22.1836 4.07983 22.0243C3.69328 21.8649 3.5 21.5751 3.5 21.1549V5.38475C3.5 4.84769 3.67986 4.39931 4.03958 4.03958C4.39931 3.67986 4.84769 3.5 5.38475 3.5H22.6152C23.1523 3.5 23.6007 3.67986 23.9604 4.03958C24.3201 4.39931 24.5 4.84769 24.5 5.38475V17.9486C24.5 18.4856 24.3201 18.934 23.9604 19.2937C23.6007 19.6535 23.1523 19.8333 22.6152 19.8333H7.08983ZM9.33333 12.5641C9.57406 12.5641 9.78386 12.4748 9.96275 12.2961C10.1414 12.1172 10.2308 11.9074 10.2308 11.6667C10.2308 11.4259 10.1414 11.2161 9.96275 11.0372C9.78386 10.8586 9.57406 10.7692 9.33333 10.7692C9.09261 10.7692 8.88281 10.8586 8.70392 11.0372C8.52522 11.2161 8.43588 11.4259 8.43588 11.6667C8.43588 11.9074 8.52522 12.1172 8.70392 12.2961C8.88281 12.4748 9.09261 12.5641 9.33333 12.5641ZM14 12.5641C14.2407 12.5641 14.4505 12.4748 14.6294 12.2961C14.8081 12.1172 14.8975 11.9074 14.8975 11.6667C14.8975 11.4259 14.8081 11.2161 14.6294 11.0372C14.4505 10.8586 14.2407 10.7692 14 10.7692C13.7593 10.7692 13.5495 10.8586 13.3706 11.0372C13.1919 11.2161 13.1025 11.4259 13.1025 11.6667C13.1025 11.9074 13.1919 12.1172 13.3706 12.2961C13.5495 12.4748 13.7593 12.5641 14 12.5641ZM18.6667 12.5641C18.9074 12.5641 19.1172 12.4748 19.2961 12.2961C19.4748 12.1172 19.5641 11.9074 19.5641 11.6667C19.5641 11.4259 19.4748 11.2161 19.2961 11.0372C19.1172 10.8586 18.9074 10.7692 18.6667 10.7692C18.4259 10.7692 18.2161 10.8586 18.0372 11.0372C17.8586 11.2161 17.7692 11.4259 17.7692 11.6667C17.7692 11.9074 17.8586 12.1172 18.0372 12.2961C18.2161 12.4748 18.4259 12.5641 18.6667 12.5641Z" fill="black"/>
</svg>
