<svg width="28" height="28" viewBox="0 0 28 28" fill="none" xmlns="http://www.w3.org/2000/svg">
<path d="M13.4167 14.5833H7.58333C7.41806 14.5833 7.27951 14.5273 7.16771 14.4153C7.0559 14.3033 7 14.1646 7 13.9991C7 13.8337 7.0559 13.6952 7.16771 13.5838C7.27951 13.4724 7.41806 13.4167 7.58333 13.4167H13.4167V7.58333C13.4167 7.41806 13.4727 7.27951 13.5847 7.16771C13.6967 7.0559 13.8354 7 14.0009 7C14.1663 7 14.3048 7.0559 14.4162 7.16771C14.5276 7.27951 14.5833 7.41806 14.5833 7.58333V13.4167H20.4167C20.5819 13.4167 20.7205 13.4727 20.8323 13.5847C20.9441 13.6967 21 13.8354 21 14.0009C21 14.1663 20.9441 14.3048 20.8323 14.4162C20.7205 14.5276 20.5819 14.5833 20.4167 14.5833H14.5833V20.4167C14.5833 20.5819 14.5273 20.7205 14.4153 20.8323C14.3033 20.9441 14.1646 21 13.9991 21C13.8337 21 13.6952 20.9441 13.5838 20.8323C13.4724 20.7205 13.4167 20.5819 13.4167 20.4167V14.5833Z" fill="black"/>
</svg>
