<svg width="28" height="28" viewBox="0 0 28 28" fill="none" xmlns="http://www.w3.org/2000/svg">
<path d="M6.55125 23.3332C6.03286 23.3332 5.58914 23.1487 5.22009 22.7797C4.85103 22.4106 4.6665 21.9669 4.6665 21.4485V6.55132C4.6665 6.03293 4.85103 5.58921 5.22009 5.22015C5.58914 4.85109 6.03286 4.66657 6.55125 4.66657H11.9605C12.0696 4.2104 12.3119 3.82715 12.6873 3.51682C13.0628 3.20629 13.5003 3.05103 13.9998 3.05103C14.5083 3.05103 14.9492 3.20629 15.3225 3.51682C15.6957 3.82715 15.9368 4.2104 16.0459 4.66657H21.4484C21.9668 4.66657 22.4105 4.85109 22.7796 5.22015C23.1486 5.58921 23.3332 6.03293 23.3332 6.55132V21.4485C23.3332 21.9669 23.1486 22.4106 22.7796 22.7797C22.4105 23.1487 21.9668 23.3332 21.4484 23.3332H6.55125ZM6.55125 22.1666H21.4484C21.6281 22.1666 21.7927 22.0918 21.9422 21.9423C22.0917 21.7928 22.1665 21.6282 22.1665 21.4485V6.55132C22.1665 6.37165 22.0917 6.20705 21.9422 6.05753C21.7927 5.908 21.6281 5.83323 21.4484 5.83323H18.6665V7.4934C18.6665 7.76037 18.5771 7.98418 18.3982 8.16482C18.2193 8.34546 17.9976 8.43578 17.7332 8.43578H10.2662C10.0016 8.43578 9.77991 8.34546 9.60121 8.16482C9.42252 7.98418 9.33317 7.76037 9.33317 7.4934V5.83323H6.55125C6.37159 5.83323 6.20699 5.908 6.05746 6.05753C5.90793 6.20705 5.83317 6.37165 5.83317 6.55132V21.4485C5.83317 21.6282 5.90793 21.7928 6.05746 21.9423C6.20699 22.0918 6.37159 22.1666 6.55125 22.1666ZM14.0036 6.10244C14.2718 6.10244 14.4953 6.01174 14.6742 5.83032C14.8529 5.6491 14.9422 5.42441 14.9422 5.15628C14.9422 4.88814 14.8515 4.66472 14.6701 4.48603C14.4887 4.30733 14.264 4.21798 13.996 4.21798C13.7279 4.21798 13.5044 4.3086 13.3255 4.48982C13.1468 4.67123 13.0575 4.89601 13.0575 5.16415C13.0575 5.43229 13.1482 5.65571 13.3296 5.8344C13.511 6.01309 13.7357 6.10244 14.0036 6.10244Z" fill="black"/>
</svg>
