<svg width="28" height="28" viewBox="0 0 28 28" fill="none" xmlns="http://www.w3.org/2000/svg">
<path d="M11.1283 17.7692C9.26315 17.7692 7.68251 17.1212 6.38634 15.8253C5.09037 14.5291 4.44238 12.9484 4.44238 11.0833C4.44238 9.21822 5.09037 7.63758 6.38634 6.34142C7.68251 5.04545 9.26315 4.39746 11.1283 4.39746C12.9934 4.39746 14.574 5.04545 15.8702 6.34142C17.1661 7.63758 17.8141 9.21822 17.8141 11.0833C17.8141 11.894 17.6705 12.6785 17.3833 13.4368C17.0961 14.1951 16.7192 14.8435 16.2526 15.3819L23.1449 22.2743C23.254 22.3836 23.3123 22.5174 23.3199 22.6759C23.3273 22.8346 23.269 22.9759 23.1449 23.1C23.0207 23.2241 22.883 23.2861 22.7319 23.2861C22.581 23.2861 22.4435 23.2241 22.3192 23.1L15.4268 16.2076C14.8435 16.7042 14.1727 17.0887 13.4143 17.3609C12.656 17.6331 11.894 17.7692 11.1283 17.7692ZM11.1283 16.6025C12.6762 16.6025 13.9831 16.0697 15.0488 15.0039C16.1146 13.9384 16.6475 12.6315 16.6475 11.0833C16.6475 9.53517 16.1146 8.22831 15.0488 7.16275C13.9831 6.097 12.6762 5.56413 11.1283 5.56413C9.58009 5.56413 8.27323 6.097 7.20767 7.16275C6.14192 8.22831 5.60905 9.53517 5.60905 11.0833C5.60905 12.6315 6.14192 13.9384 7.20767 15.0039C8.27323 16.0697 9.58009 16.6025 11.1283 16.6025Z" fill="black"/>
</svg>
