<svg width="28" height="28" viewBox="0 0 28 28" fill="none" xmlns="http://www.w3.org/2000/svg">
<path d="M11.1416 18.1014L21.2199 8.02319C21.3933 7.84955 21.5963 7.76089 21.8289 7.75719C22.0614 7.7535 22.2682 7.84216 22.4493 8.02319C22.6303 8.20422 22.7208 8.41208 22.7208 8.64677C22.7208 8.88166 22.6303 9.08962 22.4493 9.27065L11.8798 19.8582C11.6689 20.0689 11.4228 20.1743 11.1416 20.1743C10.8605 20.1743 10.6144 20.0689 10.4034 19.8582L5.53259 14.9873C5.35915 14.8137 5.27359 14.6076 5.27593 14.369C5.27806 14.1306 5.36965 13.9209 5.55068 13.7399C5.7317 13.5588 5.93956 13.4683 6.17426 13.4683C6.40915 13.4683 6.61711 13.5588 6.79813 13.7399L11.1416 18.1014Z" fill="black"/>
</svg>
