<svg width="28" height="28" viewBox="0 0 28 28" fill="none" xmlns="http://www.w3.org/2000/svg">
<path d="M7.71825 22.1666C7.18119 22.1666 6.7328 21.9867 6.37308 21.627C6.01336 21.2673 5.8335 20.8189 5.8335 20.2818V18.0383C5.8335 17.8723 5.8892 17.7335 6.00062 17.6221C6.11204 17.5107 6.25077 17.455 6.41683 17.455C6.58288 17.455 6.72162 17.5107 6.83304 17.6221C6.94445 17.7335 7.00016 17.8723 7.00016 18.0383V20.2818C7.00016 20.4615 7.07493 20.6261 7.22445 20.7756C7.37398 20.9252 7.53858 20.9999 7.71825 20.9999H20.2821C20.4617 20.9999 20.6263 20.9252 20.7759 20.7756C20.9254 20.6261 21.0002 20.4615 21.0002 20.2818V18.0383C21.0002 17.8723 21.0559 17.7335 21.1673 17.6221C21.2787 17.5107 21.4174 17.455 21.5835 17.455C21.7496 17.455 21.8883 17.5107 21.9997 17.6221C22.1111 17.7335 22.1668 17.8723 22.1668 18.0383V20.2818C22.1668 20.8189 21.987 21.2673 21.6272 21.627C21.2675 21.9867 20.8191 22.1666 20.2821 22.1666H7.71825ZM13.4168 8.08142L11.117 10.3809C11.0035 10.4947 10.8685 10.5542 10.7122 10.5594C10.5559 10.5647 10.4134 10.5029 10.2849 10.3742C10.1607 10.2457 10.0975 10.1081 10.0953 9.9615C10.093 9.81489 10.1562 9.67723 10.2849 9.5485L13.3404 6.493C13.4423 6.39112 13.5463 6.31966 13.6525 6.27863C13.7587 6.23741 13.8746 6.2168 14.0002 6.2168C14.1258 6.2168 14.2417 6.23741 14.3478 6.27863C14.454 6.31966 14.558 6.39112 14.6599 6.493L17.7154 9.5485C17.8292 9.66225 17.8887 9.79613 17.8939 9.95013C17.8992 10.1043 17.8397 10.2457 17.7154 10.3742C17.5869 10.5029 17.4482 10.5684 17.2995 10.5705C17.1506 10.5728 17.0118 10.5096 16.8833 10.3809L14.5835 8.08142V17.5898C14.5835 17.7558 14.5278 17.8945 14.4164 18.006C14.305 18.1174 14.1662 18.1731 14.0002 18.1731C13.8341 18.1731 13.6954 18.1174 13.584 18.006C13.4725 17.8945 13.4168 17.7558 13.4168 17.5898V8.08142Z" fill="black"/>
</svg>
